<?xml version="1.0" encoding="UTF-8" standalone="no"?>
<!DOCTYPE svg PUBLIC "-//W3C//DTD SVG 1.1//EN" "http://www.w3.org/Graphics/SVG/1.1/DTD/svg11.dtd">
<svg width="456" height="456" viewBox="0 0 456 456" version="1.1" xmlns="http://www.w3.org/2000/svg" xmlns:xlink="http://www.w3.org/1999/xlink" xml:space="preserve" xmlns:serif="http://www.serif.com/" style="fill-rule:evenodd;clip-rule:evenodd;stroke-linejoin:round;stroke-miterlimit:2;">
	<path d="M30.25 44.50L30.25 44.50Q30.25 44.85 30.04 45.10Q29.82 45.35 29.55 45.47L29.55 45.47Q28.90 45.02 28.02 44.63Q27.15 44.22 25.75 44.22L25.75 44.22Q24.60 44.22 23.62 44.63Q22.65 45.02 21.92 45.80Q21.20 46.57 20.79 47.75Q20.37 48.92 20.37 50.45L20.37 50.45Q20.37 52 20.77 53.15Q21.17 54.30 21.89 55.07Q22.60 55.85 23.60 56.24Q24.60 56.63 25.82 56.63L25.82 56.63Q27.12 56.63 28.09 56.26Q29.05 55.90 29.70 55.40L29.70 55.40Q29.95 55.50 30.17 55.76Q30.40 56.02 30.40 56.38L30.40 56.38Q30.40 56.90 29.80 57.32L29.80 57.32Q29.22 57.73 28.22 58.04Q27.22 58.35 25.67 58.35L25.67 58.35Q24.10 58.35 22.75 57.85Q21.40 57.35 20.41 56.36Q19.42 55.38 18.85 53.90Q18.27 52.42 18.27 50.45L18.27 50.45Q18.27 48.47 18.86 46.99Q19.45 45.50 20.45 44.50Q21.45 43.50 22.79 43Q24.12 42.50 25.60 42.50L25.60 42.50Q26.62 42.50 27.49 42.67Q28.35 42.85 28.96 43.14Q29.57 43.42 29.91 43.79Q30.25 44.15 30.25 44.50ZM35.55 57.98L35.55 57.98Q35.42 58.02 35.17 58.09Q34.92 58.15 34.62 58.15L34.62 58.15Q33.55 58.15 33.55 57.25L33.55 57.25L33.55 41.83Q33.67 41.77 33.94 41.71Q34.20 41.65 34.50 41.65L34.50 41.65Q35.55 41.65 35.55 42.55L35.55 42.55L35.55 47.05Q36.15 46.70 36.96 46.42Q37.77 46.15 38.80 46.15L38.80 46.15Q39.85 46.15 40.71 46.42Q41.57 46.70 42.20 47.26Q42.82 47.82 43.17 48.69Q43.52 49.55 43.52 50.70L43.52 50.70L43.52 57.98Q43.40 58.02 43.14 58.09Q42.87 58.15 42.60 58.15L42.60 58.15Q41.52 58.15 41.52 57.25L41.52 57.25L41.52 50.75Q41.52 49.25 40.70 48.52Q39.87 47.80 38.52 47.80L38.52 47.80Q37.65 47.80 36.89 48.11Q36.12 48.42 35.55 48.88L35.55 48.88L35.55 57.98ZM56.40 52.35L48.70 53.42Q49.37 56.70 53.00 56.70L53.00 56.70Q54.05 56.70 54.90 56.35Q55.75 56 56.25 55.60L56.25 55.60Q56.85 55.95 56.85 56.55L56.85 56.55Q56.85 56.90 56.54 57.23Q56.22 57.55 55.69 57.80Q55.15 58.05 54.44 58.20Q53.72 58.35 52.90 58.35L52.90 58.35Q50.00 58.35 48.31 56.77Q46.62 55.20 46.62 52.17L46.62 52.17Q46.62 50.75 47.04 49.64Q47.45 48.52 48.19 47.75Q48.92 46.97 49.95 46.56Q50.97 46.15 52.17 46.15L52.17 46.15Q53.30 46.15 54.25 46.52Q55.20 46.90 55.89 47.59Q56.57 48.27 56.96 49.21Q57.35 50.15 57.35 51.27L57.35 51.27Q57.35 51.82 57.10 52.06Q56.85 52.30 56.40 52.35L56.40 52.35ZM52.15 47.77L52.15 47.77Q50.62 47.77 49.62 48.84Q48.62 49.90 48.57 51.88L48.57 51.88L55.45 50.92Q55.32 49.55 54.49 48.66Q53.65 47.77 52.15 47.77ZM65.60 47.82L65.60 47.82Q64.75 47.82 64.02 48.11Q63.30 48.40 62.77 48.96Q62.25 49.52 61.95 50.36Q61.65 51.20 61.65 52.27L61.65 52.27Q61.65 54.42 62.72 55.56Q63.80 56.70 65.60 56.70L65.60 56.70Q66.65 56.70 67.35 56.41Q68.05 56.13 68.60 55.75L68.60 55.75Q68.88 55.90 69.05 56.13Q69.22 56.35 69.22 56.67L69.22 56.67Q69.22 57.02 68.95 57.32Q68.67 57.63 68.19 57.85Q67.70 58.07 67.04 58.21Q66.38 58.35 65.60 58.35L65.60 58.35Q64.30 58.35 63.20 57.98Q62.10 57.60 61.30 56.85Q60.50 56.10 60.05 54.96Q59.60 53.82 59.60 52.27L59.60 52.27Q59.60 50.75 60.07 49.61Q60.55 48.47 61.35 47.70Q62.15 46.92 63.24 46.54Q64.32 46.15 65.55 46.15L65.55 46.15Q66.32 46.15 66.99 46.29Q67.65 46.42 68.13 46.67Q68.60 46.92 68.86 47.24Q69.13 47.55 69.13 47.88L69.13 47.88Q69.13 48.17 68.95 48.40Q68.77 48.63 68.50 48.75L68.50 48.75Q67.95 48.38 67.30 48.10Q66.65 47.82 65.60 47.82ZM74.25 57.98L74.25 57.98Q74.12 58.02 73.87 58.09Q73.62 58.15 73.32 58.15L73.32 58.15Q72.25 58.15 72.25 57.25L72.25 57.25L72.25 41.83Q72.37 41.77 72.64 41.71Q72.90 41.65 73.20 41.65L73.20 41.65Q74.25 41.65 74.25 42.55L74.25 42.55L74.25 51.55L79.72 46.25Q80.32 46.27 80.66 46.54Q81.00 46.80 81.00 47.22L81.00 47.22Q81.00 47.57 80.77 47.84Q80.55 48.10 80.17 48.45L80.17 48.45L76.15 51.97L81.72 56.98Q81.67 57.52 81.39 57.85Q81.10 58.17 80.62 58.17L80.62 58.17Q80.25 58.17 79.94 57.99Q79.62 57.80 79.30 57.45L79.30 57.45L74.25 52.38L74.25 57.98Z" fill="#fff"></path>
</svg>